<?xml version="1.0" encoding="utf-8"?>
<!-- Generator: Adobe Illustrator 25.2.3, SVG Export Plug-In . SVG Version: 6.00 Build 0)  -->
<svg version="1.1"
	 id="svg8" inkscape:version="1.0.2 (e86c870879, 2021-01-15, custom)" xmlns:cc="http://creativecommons.org/ns#" xmlns:dc="http://purl.org/dc/elements/1.1/" xmlns:inkscape="http://www.inkscape.org/namespaces/inkscape" xmlns:rdf="http://www.w3.org/1999/02/22-rdf-syntax-ns#" xmlns:sodipodi="http://sodipodi.sourceforge.net/DTD/sodipodi-0.dtd" xmlns:svg="http://www.w3.org/2000/svg"
	 xmlns="http://www.w3.org/2000/svg" xmlns:xlink="http://www.w3.org/1999/xlink" x="0px" y="0px" viewBox="0 0 2426.1 2401.9"
	 style="enable-background:new 0 0 2426.1 2401.9;" xml:space="preserve">
<style type="text/css">
	.st0{fill-rule:evenodd;clip-rule:evenodd;fill:#CCCCCC;}
	.st1{fill-rule:evenodd;clip-rule:evenodd;fill:#666666;}
	.st2{fill-rule:evenodd;clip-rule:evenodd;fill:#999999;}
	.st3{fill-rule:evenodd;clip-rule:evenodd;fill:#333333;}
	.st4{fill-rule:evenodd;clip-rule:evenodd;fill:#1A1A1A;}
	.st5{fill-rule:evenodd;clip-rule:evenodd;fill:#FF0000;}
</style>
<sodipodi:namedview  bordercolor="#666666" borderopacity="1.0" id="base" inkscape:current-layer="text3372-2" inkscape:cx="701.78324" inkscape:cy="754.22366" inkscape:document-rotation="0" inkscape:document-units="mm" inkscape:pageopacity="0.0" inkscape:pageshadow="2" inkscape:window-height="2104" inkscape:window-maximized="1" inkscape:window-width="3840" inkscape:window-x="0" inkscape:window-y="0" inkscape:zoom="1" pagecolor="#ffffff" showgrid="false">
	<inkscape:grid  id="grid14" type="xygrid"></inkscape:grid>
</sodipodi:namedview>
<rect x="624.1" y="578.9" class="st0" width="216.2" height="216.2"/>
<rect x="1105" y="578.9" class="st1" width="216.2" height="216.2"/>
<rect x="624.1" y="819.4" class="st2" width="216.2" height="216.2"/>
<rect x="864.5" y="819.4" class="st2" width="216.2" height="216.2"/>
<rect x="1105" y="819.4" class="st1" width="216.2" height="216.2"/>
<rect x="1345.4" y="819.4" class="st3" width="216.2" height="216.2"/>
<rect x="624.1" y="1059.8" class="st1" width="216.2" height="216.2"/>
<rect x="864.5" y="1059.8" class="st1" width="216.2" height="216.2"/>
<rect x="1345.4" y="1059.8" class="st3" width="216.2" height="216.2"/>
<rect x="624.1" y="1300.2" class="st3" width="216.2" height="216.2"/>
<rect x="864.5" y="1300.2" class="st3" width="216.2" height="216.2"/>
<rect x="1105" y="1300.2" class="st3" width="216.2" height="216.2"/>
<rect x="1345.4" y="1300.2" class="st3" width="216.2" height="216.2"/>
<rect x="1585.8" y="578.9" class="st4" width="216.2" height="216.2"/>
<rect x="1585.8" y="819.4" class="st4" width="216.2" height="216.2"/>
<rect x="1585.8" y="1059.8" class="st4" width="216.2" height="216.2"/>
<rect x="1585.8" y="1300.2" class="st4" width="216.2" height="216.2"/>
<rect x="624.1" y="1540.7" class="st4" width="216.2" height="216.2"/>
<rect x="864.5" y="1540.7" class="st4" width="216.2" height="216.2"/>
<rect x="1105" y="1540.7" class="st4" width="216.2" height="216.2"/>
<rect x="1345.4" y="1540.7" class="st4" width="216.2" height="216.2"/>
<rect x="1585.8" y="1540.7" class="st4" width="216.2" height="216.2"/>
<rect x="1105" y="1059.8" class="st5" width="216.2" height="216.2"/>
<g>
	<path d="M81.3,1251.4c-0.7-10,0.1-18.9,2.4-26.6c2.3-7.7,5.9-14.3,10.7-19.6c4.8-5.4,10.8-9.6,18-12.6c7.2-3,15.3-4.9,24.5-5.5
		l90.1-6.5l1.3,18.3l-89.7,6.5c-13.5,1-24,5.3-31.4,12.9c-7.4,7.6-10.6,18.3-9.6,32s5.7,23.8,14.1,30.3c8.4,6.5,19.4,9.3,32.9,8.3
		l89.7-6.5l1.3,18.3l-89.9,6.5c-9.1,0.7-17.5,0-25.1-2c-7.6-2-14.2-5.3-19.8-9.9c-5.6-4.6-10.1-10.6-13.4-17.9
		C84,1270.1,82,1261.4,81.3,1251.4z"/>
	<path d="M113.9,1440.9l143.1-36.5l4.1,16.1L118,1457L113.9,1440.9z"/>
	<path d="M164.8,1604.2c-3-7.4-3.2-13.7-0.6-19c2.6-5.3,7.5-9.4,14.9-12.4l64.7-26.2l-6.6-16.4l13.8-5.6l6.6,16.4l27.1-11l6.2,15.4
		l-27.1,11l8.1,20.1l-13.8,5.6l-8.1-20.1l-61.4,24.8c-3.7,1.5-6.4,3.5-8.1,6.1c-1.7,2.6-1.9,5.6-0.5,9c0.9,2.2,2.1,4,3.7,5.6
		s3.1,2.6,4.7,3.3l-9.7,9.2c-2.7-1.1-5.2-2.9-7.6-5.4C168.8,1612.2,166.7,1608.7,164.8,1604.2z"/>
	<path d="M225.5,1722.9l92.3-54.1l8.4,14.3l-14.9,8.7c7,0.9,13.6,3,19.9,6.3c6.2,3.4,11.2,8.2,15,14.6l-14.7,8.6
		c-0.7-2-1.6-4-2.8-6.1c-1.3-2.2-3-4.2-5.3-6.2c-2.3-2-4.8-3.8-7.6-5.3c-2.8-1.5-5.6-2.8-8.4-3.7c-2.8-0.9-5.5-1.3-8-1.2l-65.3,38.3
		L225.5,1722.9z"/>
	<path d="M362.6,1916.2l9.3-7.8c-13.4-0.5-24.8-6.4-34.2-17.6c-2.9-3.5-5.3-7.4-7-11.8c-1.7-4.3-2.6-8.8-2.5-13.5
		c0-4.7,1-9.3,3-13.8c2-4.5,5.1-8.7,9.6-12.4c4.5-3.8,9.2-6.3,14-7.4s9.5-1.3,14-0.5c4.5,0.8,8.8,2.5,12.7,4.9
		c3.9,2.5,7.4,5.5,10.3,9c4.8,5.6,8.1,11.5,10.2,17.6c2,6.1,2.5,12.4,1.4,18.9l14.7-12.4c5.5-4.7,8.2-10.2,7.9-16.6
		c-0.3-6.4-2.9-12.6-8-18.6c-8.1-9.6-18.9-14.8-32.5-15.5l3.8-13.3c16.4,1.1,30,8.2,41.1,21.3c3.6,4.3,6.5,8.8,8.7,13.5
		c2.2,4.7,3.4,9.4,3.7,14.1c0.2,4.7-0.7,9.4-2.8,14.1c-2.1,4.6-5.6,9.1-10.6,13.2l-56.3,47.3L362.6,1916.2z M350.7,1887.7
		c3.8,4.5,8.2,8.1,13.3,10.7c5.1,2.6,10.3,3.7,15.8,3.3l15.4-13c1.3-5.3,1.1-10.7-0.6-16.2c-1.7-5.4-4.4-10.4-8.2-14.9
		c-5-6-10.8-9.4-17.3-10.4c-6.5-0.9-12.4,0.8-17.7,5.3c-5.2,4.4-7.9,9.8-8.1,16.4C343.3,1875.5,345.7,1881.7,350.7,1887.7z"/>
	<path d="M468.3,2022.1l93.3-114.5l14.3,11.6L492.9,2021l53.2,43.4l-10.3,12.7L468.3,2022.1z"/>
	<path d="M675.4,2168.1c-7.1-3.9-12.9-8.6-17.3-14.4c-4.4-5.7-7.4-11.9-9-18.6c-1.6-6.7-1.9-13.5-0.8-20.7c1.1-7.1,3.5-14.1,7.2-21
		c3.6-6.8,8.2-12.6,13.6-17.5c5.4-4.9,11.3-8.5,17.7-10.7c6.4-2.2,13.2-3.1,20.4-2.6c7.2,0.5,14.3,2.7,21.5,6.6
		c7.1,3.9,12.9,8.6,17.3,14.4c4.4,5.7,7.4,11.9,9,18.5c1.6,6.6,1.9,13.5,0.8,20.7s-3.5,14.2-7.1,20.9c-3.7,6.9-8.3,12.7-13.6,17.6
		c-5.4,4.8-11.3,8.4-17.7,10.7c-6.4,2.3-13.3,3.2-20.4,2.7C689.7,2174.2,682.6,2172,675.4,2168.1z M682.5,2155.1
		c5.1,2.7,10.1,4.1,15,4.2c4.9,0.1,9.6-0.9,14.1-2.7c4.4-1.9,8.5-4.7,12.3-8.3c3.7-3.7,6.9-7.9,9.5-12.7c2.6-4.8,4.4-9.8,5.4-14.8
		c1-5.1,1-10,0.2-14.8c-0.9-4.8-2.7-9.2-5.4-13.2c-2.7-4.1-6.7-7.5-11.7-10.2c-5.1-2.7-10.1-4.1-15.1-4.2c-5-0.1-9.7,0.8-14.2,2.7
		c-4.5,1.9-8.5,4.6-12.2,8.2c-3.7,3.6-6.9,7.8-9.5,12.6c-2.6,4.8-4.4,9.8-5.4,14.9c-1,5.2-1.1,10.1-0.2,14.9
		c0.9,4.7,2.7,9.2,5.5,13.3C673.5,2148.9,677.4,2152.3,682.5,2155.1z M729,2042c-1.4,2.6-3.5,4.3-6.2,5.1c-2.7,0.8-5.3,0.5-7.8-0.8
		c-2.6-1.4-4.3-3.5-5.1-6.2c-0.8-2.7-0.5-5.3,0.9-7.9c1.3-2.5,3.3-4.1,6-4.9c2.7-0.8,5.3-0.5,7.9,0.9c2.5,1.3,4.1,3.3,4.9,6
		S730.4,2039.6,729,2042z M769.4,2063.8c-1.4,2.6-3.5,4.3-6.2,5.1c-2.8,0.8-5.4,0.5-7.9-0.8c-2.5-1.3-4.1-3.4-5-6.1
		c-0.9-2.7-0.6-5.4,0.8-8c1.3-2.5,3.4-4.1,6.1-4.9c2.8-0.8,5.4-0.5,7.9,0.8c2.5,1.3,4.1,3.4,5,6.1
		C771,2058.7,770.7,2061.3,769.4,2063.8z"/>
	<path d="M891,2257c-7.1-2.1-13.1-5.6-18.1-10.5c-5-4.9-8.7-10.9-11-17.9l-16.4,54.5l-15.9-4.8l42.6-141.4l15.9,4.8l-4.6,15.3
		c5.2-4.1,11.4-6.9,18.5-8.4c7.1-1.5,14.2-1.2,21.4,1c6.8,2,12.6,5.1,17.4,9.3c4.8,4.2,8.6,9.1,11.2,14.9c2.6,5.8,4.1,12.4,4.3,19.7
		c0.2,7.3-1,15.1-3.5,23.5c-2.5,8.3-5.9,15.5-10.1,21.5c-4.2,6-9,10.7-14.4,14.2c-5.4,3.5-11.3,5.6-17.6,6.4
		C904.4,2259.7,897.8,2259,891,2257z M891.3,2241.6c5.1,1.5,10,1.9,14.7,1.2c4.7-0.7,9-2.5,12.9-5.1c3.9-2.7,7.3-6.2,10.3-10.7
		c3-4.4,5.3-9.5,7-15.1c1.7-5.7,2.5-11.1,2.5-16.4c0-5.3-0.9-10.1-2.7-14.5c-1.8-4.4-4.4-8.2-7.9-11.4c-3.5-3.2-7.8-5.6-12.9-7.1
		c-6.4-1.9-12.8-2.1-19.4-0.6c-6.5,1.5-11.9,4.1-16.1,7.8l-13.9,46.2c1.5,5.4,4.5,10.5,9.1,15.5
		C879.4,2236.2,884.9,2239.7,891.3,2241.6z"/>
	<path d="M1128.2,2297.8l1.2-12.1c-9.9,9-22.1,12.8-36.7,11.4c-4.6-0.4-9-1.6-13.2-3.5c-4.3-1.9-8-4.5-11.3-7.9
		c-3.2-3.4-5.7-7.3-7.5-12s-2.4-9.8-1.8-15.5c0.6-5.9,2.2-10.9,4.8-15.1s5.8-7.6,9.7-10.2c3.8-2.6,8-4.4,12.5-5.4
		c4.5-1,9.1-1.2,13.6-0.8c7.3,0.7,13.9,2.5,19.6,5.4c5.7,2.9,10.5,7.1,14.3,12.5l1.8-19.2c0.7-7.2-1.3-13-6-17.4
		c-4.7-4.4-10.9-6.9-18.7-7.7c-12.5-1.2-23.8,2.7-34,11.6l-6.6-12.2c12.4-10.7,27.2-15.2,44.2-13.5c5.6,0.5,10.8,1.7,15.7,3.5
		c4.9,1.8,9,4.3,12.5,7.5s6.1,7.2,7.9,12c1.8,4.8,2.3,10.4,1.7,16.9l-7,73.2L1128.2,2297.8z M1099.8,2285.7c5.9,0.6,11.5,0,17-1.7
		c5.4-1.7,10-4.6,13.6-8.7l1.9-20.1c-2.8-4.7-6.7-8.4-11.7-11.1c-5-2.7-10.4-4.3-16.3-4.9c-7.8-0.8-14.3,0.8-19.6,4.7
		c-5.3,3.9-8.2,9.3-8.9,16.2c-0.7,6.8,1.2,12.5,5.7,17.3C1085.9,2282.2,1092,2285,1099.8,2285.7z"/>
	<path d="M1275.1,2299.2l-7.6-106.7l16.6-1.2l1.2,17.2c3.9-5.9,8.7-10.9,14.5-15c5.8-4.1,12.3-6.4,19.7-7l1.2,17
		c-2.1-0.3-4.3-0.4-6.7-0.2c-2.5,0.2-5.2,0.9-8,2c-2.8,1.2-5.5,2.7-8.1,4.5c-2.6,1.8-4.9,3.8-7,5.9c-2.1,2.1-3.6,4.4-4.6,6.7
		l5.4,75.5L1275.1,2299.2z"/>
	<path d="M1445.1,2277.7l-35.7-143.3l93.9-23.4l4,15.9l-76.1,18.9l11.5,46.2l74.6-18.6l4,15.9l-74.6,18.6l16.3,65.3L1445.1,2277.7z"
		/>
	<path d="M1629.6,2076.2c1.3,2.7,1.4,5.3,0.5,8c-0.9,2.7-2.7,4.6-5.2,5.8c-2.7,1.3-5.3,1.4-8,0.5c-2.7-0.9-4.6-2.7-5.9-5.4
		c-1.2-2.5-1.3-5.1-0.4-7.8c0.9-2.7,2.7-4.6,5.4-5.9c2.5-1.2,5.1-1.3,7.8-0.4C1626.5,2072,1628.4,2073.7,1629.6,2076.2z
		 M1699.6,2194c-7.3,3.5-14.6,5.3-21.8,5.5c-7.2,0.2-14-1.1-20.3-3.7c-6.3-2.6-12-6.5-17.2-11.6c-5.1-5.1-9.4-11.2-12.7-18.2
		c-3.3-6.9-5.3-14-6.1-21.3c-0.7-7.2-0.1-14.1,1.8-20.6c2-6.5,5.3-12.5,10-18c4.7-5.5,10.7-10,18-13.5c7.3-3.5,14.6-5.3,21.8-5.5
		c7.2-0.2,13.9,1.1,20.2,3.6c6.3,2.6,12,6.4,17.2,11.6c5.1,5.2,9.4,11.2,12.7,18.1c3.4,7.1,5.4,14.2,6.1,21.4
		c0.7,7.2,0.1,14.1-1.8,20.6c-1.9,6.6-5.3,12.6-9.9,18.1C1712.9,2186.1,1706.9,2190.5,1699.6,2194z M1693.2,2180.6
		c5.2-2.5,9.3-5.7,12.2-9.6c3-3.9,5-8.3,6.1-13c1.1-4.7,1.3-9.6,0.5-14.8c-0.8-5.2-2.3-10.3-4.6-15.2c-2.3-4.9-5.3-9.3-8.8-13.1
		c-3.5-3.8-7.5-6.8-11.8-8.9c-4.4-2.1-9-3.2-13.9-3.4c-4.9-0.2-10,0.9-15.2,3.4c-5.2,2.5-9.3,5.7-12.3,9.7c-3,4-5.1,8.3-6.2,13
		c-1.1,4.7-1.3,9.6-0.6,14.7c0.7,5.1,2.3,10.2,4.6,15.1c2.3,4.9,5.3,9.3,8.8,13.2c3.6,3.9,7.5,6.9,11.9,9c4.3,2.1,9,3.2,14,3.4
		C1682.9,2184.2,1688,2183.1,1693.2,2180.6z M1671,2056.6c1.3,2.7,1.4,5.3,0.4,8c-1,2.7-2.8,4.6-5.3,5.8c-2.5,1.2-5.2,1.3-7.9,0.4
		c-2.7-0.9-4.7-2.7-6-5.4c-1.2-2.5-1.3-5.1-0.3-7.8c1-2.7,2.8-4.6,5.3-5.8c2.5-1.2,5.2-1.3,7.9-0.4
		C1667.9,2052.3,1669.8,2054,1671,2056.6z"/>
	<path d="M1852.5,2103.1l-62-87.2l13.5-9.6l10,14.1c0.2-7.1,1.7-13.8,4.5-20.4c2.8-6.5,7.2-11.9,13.2-16.2l9.9,13.9
		c-1.9,0.8-3.9,1.9-5.8,3.3c-2,1.5-4,3.4-5.8,5.9c-1.8,2.5-3.3,5.1-4.6,8c-1.3,2.9-2.2,5.8-2.9,8.7c-0.6,2.9-0.8,5.6-0.5,8.1
		l43.9,61.7L1852.5,2103.1z"/>
	<path d="M2022,1964.4c-5.6,5.7-11.7,9.9-18.3,12.7c-6.6,2.8-13.4,4.2-20.3,4.1c-6.9-0.1-13.7-1.5-20.5-4.4
		c-6.8-2.9-13.2-7.3-19.2-13.2c-5.5-5.4-9.7-11.5-12.7-18.2c-3-6.7-4.7-13.5-5-20.3c-0.3-6.8,0.8-13.6,3.2-20.2
		c2.4-6.7,6.3-12.7,11.7-18.2c5.7-5.8,11.9-9.9,18.4-12.4c6.6-2.4,13.3-3.4,20.1-3c6.8,0.5,13.5,2.4,20.1,5.7
		c6.6,3.3,12.7,7.8,18.4,13.4l3,3l-61,61.7c3.8,3.3,7.9,5.9,12.5,7.7c4.6,1.8,9.2,2.7,13.9,2.7c4.7,0,9.4-1,14-2.8
		c4.6-1.9,9-4.8,13-8.9c4.4-4.4,7.7-9.5,10.1-15.2c2.4-5.8,3.5-11.7,3.5-17.7l13.3,2c0,7.5-1.4,14.8-4.4,21.8
		S2028.2,1958.1,2022,1964.4z M2000.6,1896.6c-2.8-2.8-6.2-5.2-10.2-7.1c-4-2-8.2-3.1-12.7-3.5c-4.5-0.4-9.1,0.2-13.8,1.8
		c-4.7,1.6-9.2,4.5-13.4,8.8c-4,4.1-6.8,8.4-8.2,13c-1.4,4.6-2,9.1-1.6,13.6c0.4,4.4,1.5,8.7,3.4,12.7c1.9,4.1,4.3,7.6,7.1,10.6
		L2000.6,1896.6z"/>
	<path d="M2174,1768l-58.4-38.5c-7.9-5.2-14.5-7-19.9-5.3c-5.4,1.7-10,5.5-14,11.6c-1.8,2.7-3.2,5.6-4.1,8.7c-1,3.1-1.6,6.2-1.8,9.4
		c-0.3,3.2-0.2,6.3,0.2,9.3c0.4,3,1.1,5.7,2.2,8.2l65.3,43.1l-9.1,13.9l-89.3-58.9l9.1-13.9l12.9,8.5c-0.8-2.8-1.3-5.9-1.7-9.3
		c-0.3-3.4-0.3-7,0-10.7c0.4-3.7,1.1-7.5,2.3-11.2c1.2-3.7,2.9-7.2,5.1-10.6c12.5-19,28.4-22.1,47.6-9.4l62.7,41.3L2174,1768z"/>
	<path d="M2135,1581.5c-1.2,2.7-3.2,4.6-6.1,5.8c-2.9,1.1-5.7,1.1-8.5-0.2c-2.8-1.3-4.8-3.4-5.9-6.3c-1.1-2.9-1.1-5.7,0.1-8.4
		c1.3-2.8,3.4-4.8,6.3-5.9c2.9-1.1,5.8-1,8.6,0.2c2.8,1.3,4.8,3.4,5.8,6.2C2136.3,1575.8,2136.2,1578.6,2135,1581.5z M2243.1,1639
		l-97.6-43.8l6.8-15.2l97.6,43.8L2243.1,1639z"/>
	<path d="M2314.6,1432.5l-67.6-17.9c-9.1-2.4-16-2-20.5,1.3c-4.5,3.3-7.7,8.5-9.6,15.4c-0.8,3.1-1.2,6.3-1.2,9.5
		c0.1,3.2,0.5,6.4,1.3,9.5c0.8,3.1,1.8,6,3.2,8.7c1.3,2.7,2.9,5.1,4.7,7.1l75.6,20l-4.3,16.1l-103.4-27.4l4.3-16.1l15,4
		c-1.6-2.4-3.2-5.2-4.6-8.3c-1.4-3.1-2.5-6.5-3.4-10.2s-1.3-7.4-1.3-11.4c0-3.9,0.5-7.8,1.5-11.6c5.8-22,19.9-30,42.1-24.1
		l72.6,19.2L2314.6,1432.5z"/>
	<path d="M2386.2,1244.5c-0.6,9.1-2.1,17-4.7,23.5s-7.2,12.7-13.8,18.7l-11.9-9.1c5.6-4.1,9.6-8.8,12.2-14.2
		c2.5-5.4,4-11.9,4.5-19.6c0.3-4.4,0-8.7-0.9-12.9c-0.9-4.2-2.5-7.9-4.9-11.3c-2.4-3.3-5.6-6.1-9.5-8.2c-3.9-2.2-8.9-3.4-14.7-3.8
		l-15.3-0.9c5.2,4.2,9.4,9.5,12.7,16c3.2,6.5,4.6,13.5,4.2,21c-0.4,6.9-2.1,13.2-4.9,18.9c-2.9,5.7-6.8,10.5-11.9,14.4
		c-5,3.9-11,6.8-17.9,8.8c-6.9,1.9-14.7,2.7-23.4,2.1c-8.5-0.5-16.2-2.1-22.9-4.8c-6.7-2.7-12.3-6.3-16.9-10.8
		c-4.5-4.5-7.9-9.7-10.1-15.7c-2.2-6-3.1-12.5-2.7-19.6c0.4-7.2,2.5-13.8,6.2-19.8c3.7-6,8.6-10.9,14.8-14.9l-16.1-1l1-16.6
		l103.7,6.3c8.8,0.5,16.2,2.4,22,5.7c5.8,3.2,10.3,7.3,13.6,12.2c3.3,4.9,5.5,10.5,6.6,16.7
		C2386.2,1231.7,2386.6,1238,2386.2,1244.5z M2329.5,1238.6c0.2-3.2-0.1-6.5-0.8-9.8c-0.8-3.3-1.9-6.4-3.3-9.3
		c-1.4-2.9-3.1-5.5-5.1-7.8s-4-4.3-6.3-5.9l-46.5-2.8c-2.4,1.3-4.8,3-6.9,5.1s-4.1,4.5-5.9,7.2c-1.7,2.7-3.1,5.7-4.3,8.8
		c-1.1,3.2-1.8,6.4-2,9.6c-0.3,5.3,0.4,10.2,2.1,14.5c1.7,4.4,4.3,8.2,7.7,11.3c3.4,3.2,7.6,5.7,12.5,7.5c4.9,1.8,10.3,3,16.2,3.3
		s11.3-0.1,16.3-1.3c5-1.2,9.4-3.2,13.2-6c3.8-2.7,6.8-6.2,9.1-10.3C2327.9,1248.7,2329.2,1244,2329.5,1238.6z"/>
</g>
<g>
	<path d="M803.5,327L692.9,205L726,366.3l-23.7,12L563.2,228l24.2-12.3l113.2,126.7l-34-166.9l18.2-9.2l114.6,126l-35.5-166.1
		l24.2-12.3l39.1,201L803.5,327z"/>
	<path d="M985.6,99.3c-3.9,0.8-7.5,0-11-2.2c-3.5-2.2-5.6-5.4-6.4-9.4s-0.1-7.8,2.3-11.3c2.3-3.5,5.4-5.6,9.3-6.4
		c4.1-0.8,7.8-0.1,11.3,2.3c3.5,2.3,5.6,5.5,6.4,9.6c0.8,4.1,0,7.8-2.3,11.1C992.8,96.4,989.6,98.5,985.6,99.3z M1006.8,261.2
		l-27.9-139.9l21.7-4.3l27.9,139.9L1006.8,261.2z"/>
	<path d="M1224.2,243.4c-11.8-0.2-22.5-2.2-32.1-6c-9.6-3.8-18-9.6-25.1-17.4l11.8-15.8c4.6,5.6,11.1,10.5,19.4,14.6
		c8.3,4.2,17.4,6.3,27.2,6.5c11,0.2,19.4-2,25.2-6.5c5.8-4.5,8.7-10.3,8.8-17.4c0.1-5.7-2-10.1-6.3-13.2c-4.3-3.1-9.7-5.7-16.3-7.8
		c-6.6-2.1-13.6-4-21.2-5.8c-7.6-1.8-14.6-4.3-21.1-7.4c-6.5-3.2-11.9-7.3-16.2-12.4c-4.3-5.1-6.3-12.1-6.2-20.9
		c0.1-5.5,1.4-10.8,3.8-15.7c2.4-5,6-9.3,10.5-13c4.6-3.7,10.2-6.5,16.8-8.6c6.6-2.1,14.2-3,22.6-2.9c12.2,0.2,22.6,2.4,31.2,6.6
		c8.6,4.2,15.7,9.2,21.3,15l-10.6,15.2c-4.2-5.2-10-9.6-17.4-13.1c-7.3-3.6-15.6-5.4-24.9-5.6c-9.8-0.2-17.6,1.9-23.3,6.1
		c-5.7,4.2-8.6,9.5-8.7,15.8c-0.1,5.1,2,9.1,6.3,11.9c4.3,2.8,9.7,5.2,16.3,7.2c6.6,2,13.6,3.9,21.2,5.7c7.5,1.8,14.6,4.3,21.1,7.6
		c6.5,3.3,11.9,7.6,16.2,13.1c4.2,5.5,6.3,12.9,6.1,22.1c-0.1,5.9-1.4,11.5-3.8,16.8c-2.4,5.3-6.1,9.8-10.9,13.6
		c-4.8,3.8-10.7,6.7-17.7,8.9C1241.6,242.6,1233.5,243.6,1224.2,243.4z"/>
	<path d="M1421.1,259.6L1474.3,70l21.3,6l-20.5,73.1c7.6-6,16-10.1,25.2-12.1c9.2-2,18.5-1.7,28,0.9c8.9,2.5,16.6,6.5,23.2,12
		c6.5,5.5,11.6,12.2,15.3,19.9s5.7,16.5,6.3,26.3c0.5,9.8-0.7,20.1-3.8,31.1c-3.1,11.2-7.5,20.8-13,28.9c-5.5,8.1-11.9,14.4-19,19.1
		c-7.1,4.6-14.9,7.6-23.3,8.8c-8.4,1.2-17.1,0.6-26-1.9c-9.7-2.7-17.9-7.4-24.7-14.1c-6.8-6.7-11.8-14.3-14.9-22.7l-5.7,20.5
		L1421.1,259.6z M1452.9,228.4c2.1,7.1,6.3,13.8,12.6,20.1c6.3,6.3,13.7,10.6,22.3,13c7,2,13.6,2.4,19.9,1.3
		c6.2-1.1,11.9-3.5,17-7.2c5.1-3.7,9.6-8.5,13.4-14.3c3.8-5.9,6.8-12.6,8.9-20.2c2.1-7.6,3.1-14.9,3-22c-0.2-7.1-1.5-13.5-3.9-19.3
		c-2.5-5.8-6.1-10.8-10.8-15c-4.8-4.2-10.6-7.3-17.6-9.2c-8.5-2.4-17.2-2.5-25.9-0.2c-8.7,2.3-15.8,5.9-21.3,10.9L1452.9,228.4z"/>
	<path d="M1656.5,382.6c0.9,1.5,2.3,3,4.2,4.6c1.8,1.5,3.5,2.8,5,3.7c4.2,2.5,8.3,3.8,12.2,3.7c3.9-0.1,8.5-2,13.7-5.7l19.2-13.6
		l22.8-154.3l20.5,12.3l-19.2,124.8l100.6-76.1l20.8,12.4l-149.4,110.5c-9.1,6.7-17.8,10.1-26.1,10.2c-8.3,0.1-16.6-2.2-24.8-6.9
		c-2-1.2-4.3-2.8-6.8-4.8c-2.5-2-4.5-3.7-6.1-5.4L1656.5,382.6z"/>
</g>
</svg>
