<?xml version="1.0" encoding="utf-8"?>
<!-- Generator: Adobe Adobe Illustrator 24.2.0, SVG Export Plug-In . SVG Version: 6.00 Build 0)  -->
<svg version="1.1" xmlns="http://www.w3.org/2000/svg" xmlns:xlink="http://www.w3.org/1999/xlink" x="0px" y="0px"
	 width="2426.1px" height="2401.9px" viewBox="0 0 2426.1 2401.9" style="enable-background:new 0 0 2426.1 2401.9;"
	 xml:space="preserve">
<style type="text/css">
	.st0{fill-rule:evenodd;clip-rule:evenodd;fill:#CCCCCC;}
	.st1{fill-rule:evenodd;clip-rule:evenodd;fill:#666666;}
	.st2{fill-rule:evenodd;clip-rule:evenodd;fill:#999999;}
	.st3{fill-rule:evenodd;clip-rule:evenodd;fill:#333333;}
	.st4{fill-rule:evenodd;clip-rule:evenodd;fill:#1A1A1A;}
	.st5{fill-rule:evenodd;clip-rule:evenodd;fill:#FF0000;}
	.st6{fill:none;}
	.st7{fill-rule:evenodd;clip-rule:evenodd;fill:none;}
</style>
<g id="Grid">
</g>
<g id="Text">
</g>
<g id="Layer_3">
	<rect x="849.1" y="834.4" class="st0" width="144" height="144"/>
	<rect x="1137.1" y="834.4" class="st1" width="144" height="144"/>
	<rect x="849.1" y="978.4" class="st2" width="144" height="144"/>
	<rect x="993.1" y="978.4" class="st2" width="144" height="144"/>
	<rect x="1137.1" y="978.4" class="st1" width="144" height="144"/>
	<rect x="1281.1" y="978.4" class="st3" width="144" height="144"/>
	<rect x="849.1" y="1122.4" class="st1" width="144" height="144"/>
	<rect x="993.1" y="1122.4" class="st1" width="144" height="144"/>
	<rect x="1281.1" y="1122.4" class="st3" width="144" height="144"/>
	<rect x="849.1" y="1266.4" class="st3" width="144" height="144"/>
	<rect x="993.1" y="1266.4" class="st3" width="144" height="144"/>
	<rect x="1137.1" y="1266.4" class="st3" width="144" height="144"/>
	<rect x="1281.1" y="1266.4" class="st3" width="144" height="144"/>
	<rect x="1425.1" y="834.4" class="st4" width="144" height="144"/>
	<rect x="1425.1" y="978.4" class="st4" width="144" height="144"/>
	<rect x="1425.1" y="1122.4" class="st4" width="144" height="144"/>
	<rect x="1425.1" y="1266.4" class="st4" width="144" height="144"/>
	<rect x="1137.1" y="1122.4" class="st5" width="144" height="144"/>
	<g>
		<path class="st6" d="M363.1,1198.4c0-469.4,380.6-850,850-850s850,380.6,850,850"/>
		<path d="M733.6,537.6l86.5,101.6l0.4-0.3l-51.9-123.2l29.3-18.2l87.6,101l0.4-0.3l-53-122.5l29.3-18.2L929,626.3l-34.2,21.3
			l-85.4-99.4l-0.4,0.3l51.5,120.5l-34.2,21.3L704.4,555.9L733.6,537.6z"/>
		<path d="M982.1,417.2l34.7-9.4l46.7,172.3l-34.7,9.4L982.1,417.2z"/>
		<path d="M1177,512.7c0.1,4.2,0.5,8,1.2,11.4c0.7,3.4,2,6.3,3.9,8.6c1.9,2.3,4.4,4.1,7.5,5.4c3.1,1.3,7,1.9,11.7,1.8
			c5.5-0.1,10.4-2,14.8-5.6c4.3-3.7,6.5-9.2,6.3-16.7c-0.1-4-0.7-7.4-1.8-10.3c-1.1-2.9-3-5.5-5.5-7.8c-2.5-2.3-5.9-4.4-10-6.2
			c-4.1-1.8-9.2-3.7-15.2-5.6c-8-2.5-15-5.3-20.9-8.4c-5.9-3.1-10.8-6.7-14.8-10.9c-4-4.2-7-9-8.9-14.6c-1.9-5.5-3-12-3.1-19.3
			c-0.3-17.7,4.4-30.9,14-39.8c9.7-8.8,23.1-13.4,40.3-13.7c8-0.1,15.4,0.6,22.2,2.2c6.8,1.6,12.7,4.4,17.6,8.2
			c5,3.8,8.9,8.8,11.8,14.8c2.9,6,4.4,13.3,4.5,21.8l0.1,5l-34.5,0.6c-0.2-8.5-1.8-15-4.9-19.5c-3.1-4.5-8.1-6.7-15.1-6.6
			c-4,0.1-7.3,0.7-10,1.9c-2.6,1.2-4.7,2.8-6.3,4.7c-1.6,1.9-2.6,4.2-3.1,6.7c-0.5,2.5-0.8,5.1-0.7,7.8c0.1,5.5,1.3,10.1,3.7,13.8
			c2.4,3.7,7.5,7.1,15.2,10.1l28,11.5c6.9,2.9,12.5,5.9,16.9,9.1c4.4,3.2,7.9,6.6,10.6,10.3c2.6,3.7,4.5,7.8,5.6,12.3
			c1.1,4.5,1.7,9.5,1.8,15c0.3,18.8-4.9,32.6-15.6,41.4c-10.8,8.8-25.9,13.3-45.4,13.7c-20.3,0.4-34.9-3.8-43.9-12.5
			c-8.9-8.7-13.5-21.3-13.8-37.8l-0.1-7.2l36-0.6L1177,512.7z"/>
		<path d="M1442.8,417.1c7,2,13.4,4.6,18.9,7.8c5.6,3.2,10.1,7.1,13.4,11.7c3.4,4.6,5.4,10.1,6.2,16.4c0.8,6.3,0,13.5-2.4,21.7
			c-2.7,9.3-7.2,16.6-13.4,22c-6.2,5.4-14,8-23.4,7.9l-0.1,0.5c9.2,4.1,15.7,10.3,19.3,18.8c3.6,8.5,3.8,18.5,0.4,30
			c-1.9,6.7-4.7,12.9-8.2,18.4c-3.5,5.6-8.1,10-13.6,13.4c-5.6,3.3-12.1,5.4-19.7,6.1c-7.6,0.8-16.4-0.3-26.5-3.2l-58.4-16.9
			l49.6-171.5L1442.8,417.1z M1390.8,560.2c8.3,2.4,15.6,2.5,21.8,0.3c6.2-2.2,10.7-8.3,13.6-18.2c1.4-5,1.9-9.3,1.5-13
			c-0.4-3.7-1.5-6.8-3.2-9.5c-1.7-2.7-4.1-4.9-7.1-6.6c-3-1.7-6.4-3.1-10.2-4.3l-14.9-4.3l-14.9,51.6L1390.8,560.2z M1409,483.5
			c9.6,2.8,17.1,3.1,22.5,0.9c5.4-2.2,9.3-7.3,11.6-15.5c2.4-8.2,2-14.5-1-19c-3-4.5-8.9-8-17.5-10.5l-12.5-3.6l-13,44.9L1409,483.5
			z"/>
		<path d="M1623.1,576l0.4,0.3l58.9-43.8l32.5,21.5l-98.3,64.8l-38.7,58.6l-30-19.8l38.7-58.6l21.1-115.8l33.8,22.3L1623.1,576z"/>
	</g>
	<g>
		<path class="st6" d="M2063.1,1203.4c0,469.4-380.6,850-850,850s-850-380.6-850-850"/>
		<path d="M453,1395.9c-2.1,0.6-4,1.2-5.6,1.9c-1.7,0.7-3,1.6-4.1,2.7c-1.1,1.1-1.8,2.3-2.2,3.8c-0.4,1.5-0.3,3.2,0.2,5.1
			c0.5,2,1.3,3.5,2.4,4.6c1.1,1,2.3,1.8,3.8,2.2c1.5,0.4,3.1,0.5,4.9,0.3c1.8-0.2,3.8-0.6,5.8-1.1l57.7-15.4l4.4,16.7l-57.7,15.4
			c-5.3,1.4-9.8,1.8-13.6,1.3c-3.8-0.6-7.1-1.8-9.7-3.7c-2.7-1.9-4.8-4.4-6.3-7.4c-1.5-3-2.8-6.2-3.7-9.6c-0.9-3.4-1.5-6.8-1.7-10.1
			c-0.2-3.3,0.3-6.5,1.5-9.5c1.2-3,3.4-5.7,6.5-8.1c3.1-2.4,7.4-4.3,13-5.8l57.7-15.4l4.4,16.7L453,1395.9z"/>
		<path d="M541.6,1475.7l7,15.8l-65.4,28.9l12.4,28l-13,5.7l-19.3-43.8L541.6,1475.7z"/>
		<path d="M598.2,1613l-9.8-15.9l-60.9,37.5l-9.1-14.7l60.9-37.5l-9.8-15.9l12.1-7.4l28.7,46.6L598.2,1613z"/>
		<path d="M665.9,1677.6c4.7,5.5,6.9,10.9,6.8,16.3c-0.2,5.4-3.1,10.5-8.7,15.4c-4.4,3.7-8.7,5.9-13,6.5c-4.3,0.6-8.4-0.6-12.4-3.6
			l-0.2,0.2c2.3,3.7,3.3,7,3,9.9c-0.3,2.9-2.2,6.1-5.5,9.6c-1.1,1.2-2.4,2.4-3.7,3.7c-1.4,1.3-2.9,2.7-4.6,4.3
			c-3.4,3.1-5.8,5.5-7.5,7.3c-1.5,1.9-2.1,3.8-1.7,5.6l-0.5,0.5l-12.2-14.2c0.3-1.5,1-2.8,2.1-4c1-1.2,2.2-2.4,3.4-3.5l12.2-11.1
			c2.4-2.3,3.9-4.7,4.4-7.1c0.5-2.4-0.5-5-2.8-7.7l-6-7l-27.5,23.6l-11.2-13.1l65.1-55.7L665.9,1677.6z M632.6,1696.3
			c2.7,3.2,5.5,5,8.5,5.4c2.9,0.4,6.2-0.9,9.7-3.9c6-5.2,6.4-10.8,1.2-16.8l-5.3-6.2l-18.8,16.1L632.6,1696.3z"/>
		<path d="M754.8,1764.1l-37.9,80.1l-13.8-11.6l8.7-16.4l-17.4-14.7l-14.7,11.3l-13.8-11.6l72.6-50.9L754.8,1764.1z M718.7,1803.5
			l18.5-34.8l-0.2-0.2l-31.2,24.1L718.7,1803.5z"/>
		<path d="M819.6,1811.7l14.8,9l-37.1,61.2l26.2,15.9l-7.3,12.1l-40.9-24.8L819.6,1811.7z"/>
		<path d="M903.2,1886.1c2.6-4.8,5.6-8.7,9-11.5c3.4-2.9,7.3-4.6,11.6-5.2c4.4-0.6,9.6,0.4,15.6,2.8s10.4,5.4,13.1,8.9
			c2.7,3.5,4.3,7.4,4.7,11.8c0.4,4.4-0.2,9.3-1.7,14.5c-1.5,5.3-3.5,10.9-6,16.9c-2.5,6.1-5,11.5-7.7,16.3c-2.6,4.8-5.6,8.6-9,11.5
			c-3.4,2.9-7.2,4.5-11.6,5c-4.3,0.5-9.5-0.5-15.5-3s-10.4-5.4-13.1-8.8c-2.8-3.4-4.3-7.3-4.8-11.7c-0.4-4.4,0.1-9.2,1.7-14.5
			c1.5-5.3,3.5-10.9,6-17C898.1,1896.3,900.6,1890.9,903.2,1886.1z M906.4,1922.7c-1.3,3.8-2,7.1-2.2,9.7s0.2,4.8,1.2,6.5
			c1,1.7,2.7,3,5.1,4c2.4,1,4.5,1.2,6.4,0.7c1.9-0.5,3.7-1.7,5.4-3.7s3.5-4.8,5.3-8.5c1.8-3.6,3.8-8.1,6-13.4s3.9-9.9,5.2-13.7
			c1.3-3.8,2-7.1,2.2-9.7c0.2-2.7-0.2-4.9-1.2-6.5c-1-1.7-2.7-3-5.1-4c-2.4-1-4.5-1.2-6.4-0.7c-1.9,0.5-3.7,1.7-5.4,3.8
			c-1.7,2.1-3.5,4.9-5.3,8.5c-1.8,3.6-3.8,8.1-5.9,13.4S907.7,1918.8,906.4,1922.7z M943.2,1853.6l-5.4,13.1l-12.4-5.1l5.4-13.1
			L943.2,1853.6z M962.3,1861.4l-5.4,13.1l-12.4-5.1l5.4-13.1L962.3,1861.4z"/>
		<path d="M1054.1,1910c4.3,1,7.7,2.5,10.3,4.7c2.6,2.1,4.5,4.6,5.8,7.3c1.3,2.8,1.9,5.7,2,8.9c0.1,3.2-0.2,6.3-1,9.4
			c-1,4.3-2.5,7.9-4.5,10.8c-2,2.9-4.4,5.1-7.2,6.6c-2.8,1.5-5.9,2.4-9.4,2.6c-3.5,0.3-7.2-0.1-11.2-1l-9-2.1l-7.7,33.3l-16.8-3.9
			l19.3-83.5L1054.1,1910z M1040.2,1946.6c3.4,0.8,6.3,0.4,8.8-1.2c2.5-1.5,4.3-4.5,5.3-8.8c1-4.2,0.8-7.6-0.5-10.2
			c-1.3-2.6-4-4.4-8.2-5.4l-7-1.6l-5.9,25.4L1040.2,1946.6z"/>
		<path d="M1170.2,1926.3l16.4,87.1l-18-1.3l-2.6-18.4l-22.7-1.7l-5.3,17.8l-18-1.3l28.8-83.8L1170.2,1926.3z M1164.1,1979.4
			l-5.5-39l-0.2,0l-11.1,37.8L1164.1,1979.4z"/>
		<path d="M1282.1,1924.2c7.2-0.6,12.9,0.7,17.2,4c4.3,3.3,6.8,8.6,7.4,16c0.5,5.7-0.2,10.5-2.2,14.4c-2,3.8-5.4,6.5-10.1,7.9l0,0.2
			c4.4,0.3,7.6,1.4,9.8,3.4c2.2,2,3.7,5.3,4.6,10.1c0.3,1.6,0.6,3.3,0.8,5.2c0.2,1.9,0.5,4,0.8,6.3c0.6,4.5,1.1,8,1.6,10.3
			c0.7,2.3,1.9,3.9,3.5,4.6l0.1,0.7l-18.6,1.6c-1-1.1-1.7-2.4-2-4s-0.7-3.1-0.9-4.8l-1.9-16.3c-0.5-3.3-1.5-5.9-3.2-7.7
			c-1.7-1.8-4.3-2.5-7.9-2.2l-9.2,0.8l3.2,36.1l-17.2,1.5l-7.5-85.3L1282.1,1924.2z M1278,1962.2c4.1-0.4,7.2-1.6,9.3-3.8
			c2.1-2.1,2.9-5.5,2.5-10.2c-0.7-7.9-5-11.5-13-10.8l-8.1,0.7l2.2,24.6L1278,1962.2z"/>
		<path d="M1414,1899.7l3.4,13.7l-29.7,7.4l4.9,19.6l27.9-7l3.4,13.7l-27.9,7l9,36.1l-16.8,4.2l-20.7-83.1L1414,1899.7z"/>
		<path d="M1484.3,1853l5.5,13l-12.4,5.2l-5.5-13L1484.3,1853z M1479.2,1904.3c-1.6-5.3-2.2-10.1-1.9-14.5c0.3-4.4,1.9-8.4,4.5-11.9
			c2.7-3.5,7-6.6,13-9.1c6-2.5,11.1-3.5,15.5-3c4.4,0.5,8.3,2.2,11.7,5c3.4,2.8,6.5,6.6,9.2,11.4c2.7,4.8,5.3,10.2,7.8,16.2
			c2.6,6,4.6,11.7,6.2,16.9c1.6,5.2,2.2,10.1,1.8,14.5c-0.3,4.4-1.9,8.3-4.6,11.7c-2.7,3.4-7.1,6.4-13,8.9c-6,2.5-11.1,3.6-15.5,3.2
			c-4.3-0.4-8.2-2-11.6-4.8c-3.4-2.8-6.5-6.6-9.1-11.4c-2.7-4.8-5.3-10.2-7.9-16.2C1482.9,1915.2,1480.8,1909.5,1479.2,1904.3z
			 M1503.3,1845l5.5,13l-12.4,5.2l-5.5-13L1503.3,1845z M1507.5,1927.8c1.8,3.6,3.6,6.4,5.4,8.4s3.6,3.2,5.5,3.7
			c1.9,0.5,4,0.2,6.4-0.8c2.4-1,4-2.3,5-4c1-1.7,1.4-3.8,1.2-6.5c-0.2-2.6-1-5.9-2.3-9.7c-1.3-3.8-3.1-8.4-5.4-13.7
			c-2.2-5.3-4.3-9.7-6.1-13.3c-1.8-3.6-3.6-6.4-5.4-8.4c-1.8-2-3.6-3.3-5.5-3.7c-1.9-0.5-4-0.2-6.4,0.8c-2.4,1-4,2.3-5,4
			c-1,1.7-1.4,3.9-1.1,6.5c0.2,2.7,1,5.9,2.3,9.7c1.3,3.8,3.1,8.3,5.3,13.6C1503.6,1919.7,1505.6,1924.1,1507.5,1927.8z"/>
		<path d="M1603.8,1813.1c6.1-3.9,11.8-5.3,17.1-4.4c5.3,0.9,10,4.5,14,10.8c3.1,4.9,4.6,9.5,4.6,13.8c0,4.3-1.8,8.2-5.4,11.7
			l0.1,0.2c4-1.8,7.4-2.3,10.3-1.5c2.8,0.8,5.8,3,8.7,6.8c1,1.3,2,2.7,3.1,4.2c1.1,1.5,2.3,3.3,3.6,5.2c2.6,3.8,4.6,6.6,6.2,8.4
			c1.7,1.8,3.4,2.6,5.3,2.5l0.4,0.6l-15.8,10c-1.4-0.5-2.6-1.4-3.6-2.6c-1-1.2-2-2.5-3-3.8l-9.2-13.6c-1.9-2.8-4.1-4.5-6.4-5.3
			c-2.3-0.8-5-0.2-8,1.7l-7.8,4.9l19.4,30.6l-14.6,9.2l-45.9-72.4L1603.8,1813.1z M1617.5,1848.7c3.5-2.2,5.7-4.8,6.5-7.6
			c0.8-2.9,0-6.2-2.5-10.2c-4.2-6.7-9.7-7.9-16.5-3.6l-6.9,4.4l13.2,20.9L1617.5,1848.7z"/>
		<path d="M1719.1,1741.4l-23,20.2l13.3,15.1l21.6-19l9.4,10.6l-21.6,19l15.2,17.3l23.9-21l9.4,10.6l-36.9,32.4l-56.6-64.3l36-31.6
			L1719.1,1741.4z"/>
		<path d="M1824,1692.9l0.2-0.2l-45.2-37.4l10.1-12.2l66,54.7l-12.6,15.2l-59.7-22l-0.2,0.2l46.2,38.3l-10.1,12.2l-66-54.7
			l12.7-15.3L1824,1692.9z"/>
		<path d="M1825.9,1589.2l9-14.7l73,44.9l-9,14.7L1825.9,1589.2z"/>
		<path d="M1936.4,1503.1l0.1-0.2l-53.8-23.3l6.3-14.5l78.6,34.1l-7.8,18.1l-63.4-4.5l-0.1,0.2l55,23.9l-6.3,14.5l-78.6-34.1
			l7.9-18.3L1936.4,1503.1z"/>
		<path d="M1938.1,1373.7c-1.7-0.1-3.4,0.1-4.9,0.6c-1.6,0.4-2.9,1.2-4.1,2.1c-1.2,1-2,2.3-2.4,4c-1,4,0.5,7.5,4.6,10.4
			c4.1,2.9,11.3,5.6,21.7,8.2c5,1.2,9.5,2.2,13.6,2.9c4.1,0.7,7.7,1,10.7,0.9c3-0.1,5.5-0.7,7.4-1.9c1.9-1.1,3.1-2.9,3.7-5.3
			c0.3-1,0.3-2.2,0-3.5c-0.2-1.3-0.8-2.7-1.6-4c-0.8-1.3-2-2.5-3.5-3.6c-1.5-1.1-3.4-1.9-5.6-2.5l-8.5-2.1l-2.7,11.1l-12.3-3.1
			l6.7-27.1l44.8,11.1l-3.1,12.3l-7.7-1.9l-0.1,0.2c2.8,2.8,4.5,5.8,5.1,9c0.7,3.2,0.5,6.7-0.5,10.7c-1.3,5.1-3.2,9.1-5.8,11.9
			c-2.6,2.8-6,4.6-10.1,5.5c-4.2,0.9-9.1,1-14.7,0.2c-5.6-0.7-12.1-2-19.3-3.8c-7-1.7-13-3.7-18.1-5.9c-5.1-2.2-9.1-4.8-12.1-7.9
			c-3-3-4.9-6.6-5.8-10.6c-0.9-4-0.7-8.7,0.6-14.1c2.3-9.2,6.2-15.2,11.7-18.1c5.5-2.9,12.5-3.3,21-1.2l-4,16.1
			C1941.5,1374,1939.8,1373.7,1938.1,1373.7z"/>
	</g>
	<g>
		<rect x="858" y="1420.6" class="st7" width="702" height="133.8"/>
		<path d="M899.6,1434.9l7.9,52.8h0.2l8.4-52.8h13.8l8.4,52.8h0.2l7.9-52.8h13.8l-13,71.4h-16.1l-8-51.8h-0.2l-8,51.8h-16.1
			l-13-71.4H899.6z"/>
		<path d="M1121.4,1484.7c0,1.8,0.1,3.4,0.4,4.9c0.2,1.5,0.7,2.8,1.3,3.9c0.6,1.1,1.5,2,2.6,2.6c1.1,0.6,2.5,1,4.2,1
			c1.7,0,3.1-0.3,4.2-1c1.1-0.6,1.9-1.5,2.5-2.6c0.6-1.1,1.1-2.4,1.3-3.9c0.2-1.5,0.3-3.1,0.3-4.9v-49.8h14.4v49.8
			c0,4.5-0.6,8.3-1.9,11.2c-1.3,3-3,5.3-5.1,7c-2.1,1.7-4.6,2.9-7.3,3.5c-2.7,0.6-5.6,0.9-8.5,0.9c-2.9,0-5.8-0.3-8.5-0.8
			c-2.7-0.5-5.2-1.6-7.3-3.2c-2.1-1.6-3.8-4-5.1-7c-1.3-3-1.9-6.9-1.9-11.7v-49.8h14.4V1484.7z"/>
		<path d="M1303.6,1434.9h14.4v59.6h25.5v11.8h-39.9V1434.9z"/>
		<path d="M1531.7,1434.9v11.8h-25.5v16.8h24v11.8h-24v31h-14.4v-71.4H1531.7z"/>
	</g>
</g>
</svg>
