<?xml version="1.0" encoding="utf-8"?>
<!-- Generator: Adobe Adobe Illustrator 24.2.0, SVG Export Plug-In . SVG Version: 6.00 Build 0)  -->
<svg version="1.1" xmlns="http://www.w3.org/2000/svg" xmlns:xlink="http://www.w3.org/1999/xlink" x="0px" y="0px"
	 width="2426.1px" height="2401.9px" viewBox="0 0 2426.1 2401.9" style="enable-background:new 0 0 2426.1 2401.9;"
	 xml:space="preserve">
<style type="text/css">
	.st0{fill-rule:evenodd;clip-rule:evenodd;fill:#CCCCCC;}
	.st1{fill-rule:evenodd;clip-rule:evenodd;fill:#666666;}
	.st2{fill-rule:evenodd;clip-rule:evenodd;fill:#999999;}
	.st3{fill-rule:evenodd;clip-rule:evenodd;fill:#333333;}
	.st4{fill-rule:evenodd;clip-rule:evenodd;fill:#1A1A1A;}
	.st5{fill-rule:evenodd;clip-rule:evenodd;fill:#FF0000;}
	.st6{fill:none;}
	.st7{fill-rule:evenodd;clip-rule:evenodd;fill:none;}
	.st8{fill:#FFFFFF;}
</style>
<g id="Grid">
	<rect x="813" y="767.9" class="st0" width="146.8" height="146.8"/>
	<rect x="1139.7" y="767.9" class="st1" width="146.8" height="146.8"/>
	<rect x="813" y="931.2" class="st2" width="146.8" height="146.8"/>
	<rect x="976.3" y="931.2" class="st2" width="146.8" height="146.8"/>
	<rect x="1139.7" y="931.2" class="st1" width="146.8" height="146.8"/>
	<rect x="1302.9" y="931.2" class="st3" width="146.8" height="146.8"/>
	<rect x="813" y="1094.5" class="st1" width="146.8" height="146.8"/>
	<rect x="976.3" y="1094.5" class="st1" width="146.8" height="146.8"/>
	<rect x="1302.9" y="1094.5" class="st3" width="146.8" height="146.8"/>
	<rect x="813" y="1257.8" class="st3" width="146.8" height="146.8"/>
	<rect x="976.3" y="1257.8" class="st3" width="146.8" height="146.8"/>
	<rect x="1139.7" y="1254" class="st3" width="146.8" height="146.8"/>
	<rect x="1302.9" y="1257.8" class="st3" width="146.8" height="146.8"/>
	<rect x="1466.2" y="767.9" class="st4" width="146.8" height="146.8"/>
	<rect x="1466.2" y="931.2" class="st4" width="146.8" height="146.8"/>
	<rect x="1466.2" y="1094.5" class="st4" width="146.8" height="146.8"/>
	<rect x="1466.2" y="1257.8" class="st4" width="146.8" height="146.8"/>
	<rect x="813" y="1421.1" class="st4" width="146.8" height="146.8"/>
	<rect x="976.3" y="1421.1" class="st4" width="146.8" height="146.8"/>
	<rect x="1139.7" y="1421.1" class="st4" width="146.8" height="146.8"/>
	<rect x="1302.9" y="1421.1" class="st4" width="146.8" height="146.8"/>
	<rect x="1466.2" y="1421.1" class="st4" width="146.8" height="146.8"/>
	<rect x="1139.7" y="1094.5" class="st5" width="146.8" height="146.8"/>
</g>
<g id="Text">
	<g>
		<path class="st6" d="M363.1,1167.9c0-469.4,380.6-850,850-850s850,380.6,850,850"/>
		<path d="M782.7,521.7L826.8,654l-18.7,12.5L676,554.2l19.1-12.8l107.9,95.1l-45.3-136.9l14.3-9.6l109,94.4l-46.6-136l19.1-12.8
			l53,165.1l-18.7,12.5L782.7,521.7z"/>
		<path d="M979.3,393.6l19.9-5.7l46.1,160.3l-19.9,5.7L979.3,393.6z"/>
		<path d="M1144.1,488.4c11.3,12,29.6,23,53.1,22.4c29.7-0.7,38.8-17,38.5-29.7c-0.5-20-20.9-25-43-30.4
			c-26.9-6.3-56.8-13.1-57.7-45.8c-0.7-27.5,23.3-46.9,56.1-47.7c25.5-0.6,45.4,7.4,59.8,21.8l-12.1,15.6
			c-12.8-13.4-30.5-19.2-48.7-18.8c-20,0.5-34,11.6-33.6,27.4c0.4,16.7,19.8,21.3,41.2,26.5c27.4,6.6,58.6,14.3,59.5,49.3
			c0.6,24.2-15.3,49.4-60.3,50.5c-29,0.7-50.5-9.7-64.6-24.9L1144.1,488.4z"/>
		<path d="M1393.1,377.3l71,21.7c27.7,8.5,39.6,30.4,32.3,54.3c-6.1,20.1-23.6,29.4-39.1,28c16.2,7.8,24.9,29.6,19.1,48.7
			c-7.8,25.6-30.1,37.9-59.3,28.9l-72.7-22.2L1393.1,377.3z M1418.4,540c18.6,5.7,32.9-1.5,38-18.4c4.5-14.6-1.6-30.6-21.2-36.6
			l-48.8-14.9l-16.8,55L1418.4,540z M1439.6,467c17.9,5.5,30.9-2.6,35.3-17.2c4.4-14.3-1.7-28.7-19.6-34.2l-47.8-14.6l-15.7,51.4
			L1439.6,467z"/>
		<path d="M1616.7,580.9l2.2-116.5l19.8,14l-2.7,93.1l87.1-33.2l19.8,14l-109.1,40.5l-40.8,57.5l-16.9-12L1616.7,580.9z"/>
	</g>
	<g>
		<path class="st6" d="M2040.1,1162.9c0,469.4-380.6,850-850,850s-850-380.6-850-850"/>
		<path d="M462.1,1237.4l1.4,9.9l-48.2,7c-14.5,2.1-22.5,11.3-20.4,25.9c2.1,14.6,12.4,21.1,26.9,19l48.2-7l1.4,9.9l-48.3,7.1
			c-19.7,2.9-33.9-6.1-37-27.6s8-34.2,27.5-37L462.1,1237.4z"/>
		<path d="M488.6,1370.4l3.1,9.5l-67.6,22.1l11.6,35.4l-8.4,2.8l-14.7-44.8L488.6,1370.4z"/>
		<path d="M525.1,1487.7l-11.3-22.7l7.9-4l27.1,54.3l-7.9,4l-11.3-22.8l-63.7,31.7l-4.4-8.9L525.1,1487.7z"/>
		<path d="M559.2,1620.3l-9.4-12.9l-25.7,18.7l-5.9-8l64.7-47.1l18.9,26c8.6,11.8,7.2,25.8-4.7,34.5c-11.6,8.5-23.8,5.2-31-3.1
			l-13.7,36.7l-6.9-9.5L559.2,1620.3z M593.9,1601.2l-12.4-17l-24.7,18l12.4,17c5.6,7.7,14.5,9.2,21.8,3.9
			S599.5,1608.9,593.9,1601.2z"/>
		<path d="M653.9,1747.8l-29.2-28.2l-17.4,7.9l-7.9-7.7l78.7-35.3l8.9,8.6l-32.4,80l-7.9-7.7L653.9,1747.8z M632.9,1715.3l25,24.1
			l18.5-44L632.9,1715.3z"/>
		<path d="M759.4,1754l8.2,5.6l-40.3,58.7l30.7,21.1l-5,7.3l-38.9-26.7L759.4,1754z"/>
		<path d="M885.3,1826.1c21.5,9.9,28.7,32.7,18.8,54.2c-9.9,21.5-31.9,30.9-53.4,21c-21.6-9.9-28.7-32.7-18.8-54.2
			S863.7,1816.1,885.3,1826.1z M881.6,1834.1c-16.4-7.5-32.5,0.2-40.3,17.2c-7.8,16.9-3.2,34.3,13.1,41.8
			c16.2,7.5,32.5-0.3,40.3-17.2C902.5,1859,897.8,1841.6,881.6,1834.1z M874,1807.4c1.3-2.7,4.6-4,7.3-2.7c2.8,1.3,4,4.6,2.7,7.3
			c-1.3,2.8-4.5,4.1-7.4,2.8C874,1813.6,872.7,1810.2,874,1807.4z M896.5,1817.8c1.3-2.7,4.6-4,7.4-2.7c2.7,1.3,4,4.6,2.7,7.3
			c-1.3,2.8-4.6,4.1-7.4,2.8C896.4,1823.9,895.2,1820.6,896.5,1817.8z"/>
		<path d="M984.2,1865l31.2,7.9c15.6,4,21.6,16.9,18.4,29.6c-3.2,12.7-14.9,21.1-30.3,17.2l-21.5-5.5l-7.8,30.8l-9.7-2.5L984.2,1865
			z M1012.1,1881.2l-20.4-5.2l-7.5,29.5l20.4,5.2c9.2,2.3,17-2.1,19.2-10.8S1021.2,1883.6,1012.1,1881.2z"/>
		<path d="M1139.9,1954.8l-40.4-3.5l-8.6,17.1l-11-1l39-76.9l12.3,1.1l25.2,82.6l-11-1L1139.9,1954.8z M1103.1,1942.7l34.5,3
			l-13.3-45.9L1103.1,1942.7z"/>
		<path d="M1255.5,1939.4l-15.9,1.3l2.7,31.7l-9.9,0.8l-6.7-79.8l32-2.7c14.6-1.2,25.8,7.2,27,21.9c1.2,14.3-7.9,23.1-18.7,24.9
			l24.3,30.7l-11.7,1L1255.5,1939.4z M1257.2,1899.8l-20.9,1.8l2.6,30.5l20.9-1.8c9.4-0.8,15.4-7.7,14.6-16.6
			C1273.6,1904.6,1266.6,1899,1257.2,1899.8z"/>
		<path d="M1349.3,1876.9l50.8-13l2.2,8.6l-41.1,10.5l6.4,25l40.3-10.3l2.2,8.6l-40.3,10.3l9.1,35.3l-9.6,2.5L1349.3,1876.9z"/>
		<path d="M1494.1,1826.4c21.5-9.9,43.5-0.4,53.4,21c9.9,21.5,2.7,44.3-18.8,54.2c-21.6,9.9-43.5,0.4-53.4-21
			C1465.4,1859.1,1472.5,1836.3,1494.1,1826.4z M1472.7,1822.8c-1.3-2.7,0-6.1,2.7-7.3c2.8-1.3,6.1,0,7.3,2.7
			c1.3,2.8,0.2,6.1-2.7,7.4C1477.3,1826.8,1474,1825.6,1472.7,1822.8z M1497.8,1834.5c-16.4,7.5-21,24.8-13.1,41.8
			c7.8,16.9,23.9,24.8,40.3,17.3c16.2-7.5,20.9-24.9,13.1-41.8C1530.3,1834.7,1514.1,1827,1497.8,1834.5z M1495.1,1812.5
			c-1.3-2.7,0-6.1,2.8-7.4c2.7-1.3,6.1,0,7.3,2.7c1.3,2.8,0.1,6.2-2.7,7.4C1499.8,1816.5,1496.4,1815.3,1495.1,1812.5z"/>
		<path d="M1637.1,1801.2l-13,9.2l18.3,26l-8.1,5.7l-46.1-65.4l26.3-18.5c12-8.4,25.9-6.8,34.4,5.3c8.3,11.8,4.8,23.9-3.6,31
			l36.4,14.3l-9.6,6.8L1637.1,1801.2z M1618.5,1766.1l-17.2,12.1l17.6,25l17.2-12.1c7.8-5.5,9.4-14.4,4.2-21.7
			S1626.3,1760.7,1618.5,1766.1z"/>
		<path d="M1686.5,1700l37.3-36.9l6.2,6.3l-30.2,29.9l18.1,18.3l29.6-29.3l6.2,6.3l-29.6,29.3l19.4,19.6l30.2-29.9l6.2,6.3
			l-37.3,36.9L1686.5,1700z"/>
		<path d="M1786.2,1612.8l52.7,37.3l-5.8,8.1l-65.3-46.3l5.9-8.3l78.2-1l-51.6-36.6l5.8-8.1l65.3,46.3l-5.5,7.8L1786.2,1612.8z"/>
		<path d="M1841.1,1495.6l4.5-8.9l71.5,36l-4.5,8.9L1841.1,1495.6z"/>
		<path d="M1892.6,1416.8l61.4,20l-3.1,9.5l-76.1-24.8l3.2-9.7l74.4-24.2l-60.1-19.6l3.1-9.5l76.1,24.8l-3,9.1L1892.6,1416.8z"/>
		<path d="M1914.2,1252.7c1.8-14,9.3-23,18.8-28.9l3.9,8.5c-7.1,4.2-12.7,12-13.9,21.6c-2.2,17.4,9.4,32.3,28.3,34.7
			c18.8,2.4,34.1-9,36.3-26.4c1.2-9.5-2.4-18-5.8-22.4l-16.2-2.1l-3.5,27.3l-8.8-1.1l4.8-37.1l28.7,3.7c7.3,8.4,11.3,20,9.7,32.9
			c-2.9,22.6-21.8,38.7-46.4,35.5C1925.4,1295.6,1911.3,1275.3,1914.2,1252.7z"/>
	</g>
</g>
<g id="Wulf">
	<g>
		<rect x="1026.8" y="1312.2" class="st7" width="45.8" height="40"/>
		<path class="st8" d="M1059.8,1343.4h0.1l7.9-31.2h3.5l-9.5,36h-3.8l-8.3-31.8h-0.1l-8.4,31.8h-3.8l-9.3-36h3.4l7.8,31.2h0.1
			l8.3-31.2h3.8L1059.8,1343.4z"/>
	</g>
	<g>
		<rect x="1190.2" y="1311.2" class="st7" width="45.8" height="40"/>
		<path class="st8" d="M1199.1,1311.2h3.4v21.5c0,4.5,0.8,7.7,2.5,9.6c1.7,2,4.4,3,8,3c1.9,0,3.6-0.3,4.9-0.8
			c1.3-0.5,2.4-1.3,3.3-2.4s1.4-2.4,1.8-3.9c0.4-1.6,0.6-3.4,0.6-5.5v-21.5h3.4v22.5c0,4.7-1.2,8.3-3.5,10.8
			c-2.3,2.5-5.8,3.7-10.5,3.7c-4.7,0-8.2-1.3-10.5-3.8c-2.3-2.5-3.4-6.1-3.4-10.7V1311.2z"/>
	</g>
	<g>
		<rect x="1353.4" y="1307.5" class="st7" width="45.8" height="40"/>
		<path class="st8" d="M1366.5,1343.5v-36h3.4v33.1h19.3v2.9H1366.5z"/>
	</g>
	<g>
		<rect x="1516.7" y="1310.1" class="st7" width="45.8" height="53.7"/>
		<path class="st8" d="M1529.4,1346.1v-36h23.2v2.9h-19.8v13h18v2.9h-18v17.2H1529.4z"/>
	</g>
	<g>
		<rect x="1188.5" y="1429.9" class="st7" width="0" height="0"/>
	</g>
	<g>
		<rect x="765.3" y="1327.5" class="st7" width="3.7" height="9.5"/>
	</g>
	<g>
		<rect x="1176.5" y="1712.9" class="st7" width="0" height="0"/>
	</g>
	<g>
		<rect x="1203.1" y="1310" class="st7" width="0" height="0"/>
	</g>
</g>
</svg>
