<?xml version="1.0" encoding="utf-8"?>
<!-- Generator: Adobe Adobe Illustrator 24.2.0, SVG Export Plug-In . SVG Version: 6.00 Build 0)  -->
<svg version="1.1" xmlns="http://www.w3.org/2000/svg" xmlns:xlink="http://www.w3.org/1999/xlink" x="0px" y="0px"
	 width="2426.1px" height="2401.9px" viewBox="0 0 2426.1 2401.9" style="enable-background:new 0 0 2426.1 2401.9;"
	 xml:space="preserve">
<style type="text/css">
	.st0{fill-rule:evenodd;clip-rule:evenodd;fill:#CCCCCC;}
	.st1{fill-rule:evenodd;clip-rule:evenodd;fill:#666666;}
	.st2{fill-rule:evenodd;clip-rule:evenodd;fill:#999999;}
	.st3{fill-rule:evenodd;clip-rule:evenodd;fill:#333333;}
	.st4{fill-rule:evenodd;clip-rule:evenodd;fill:#1A1A1A;}
	.st5{fill-rule:evenodd;clip-rule:evenodd;fill:#FF0000;}
	.st6{fill:#FFFFFF;}
</style>
<g id="Grid">
	<rect x="624.1" y="578.9" class="st0" width="216.2" height="216.2"/>
	<rect x="1105" y="578.9" class="st1" width="216.2" height="216.2"/>
	<rect x="624.1" y="819.4" class="st2" width="216.2" height="216.2"/>
	<rect x="864.5" y="819.4" class="st2" width="216.2" height="216.2"/>
	<rect x="1105" y="819.4" class="st1" width="216.2" height="216.2"/>
	<rect x="1345.4" y="819.4" class="st3" width="216.2" height="216.2"/>
	<rect x="624.1" y="1059.8" class="st1" width="216.2" height="216.2"/>
	<rect x="864.5" y="1059.8" class="st1" width="216.2" height="216.2"/>
	<rect x="1345.4" y="1059.8" class="st3" width="216.2" height="216.2"/>
	<rect x="624.1" y="1300.2" class="st3" width="216.2" height="216.2"/>
	<rect x="864.5" y="1300.2" class="st3" width="216.2" height="216.2"/>
	<rect x="1105" y="1300.2" class="st3" width="216.2" height="216.2"/>
	<rect x="1345.4" y="1300.2" class="st3" width="216.2" height="216.2"/>
	<rect x="1585.8" y="578.9" class="st4" width="216.2" height="216.2"/>
	<rect x="1585.8" y="819.4" class="st4" width="216.2" height="216.2"/>
	<rect x="1585.8" y="1059.8" class="st4" width="216.2" height="216.2"/>
	<rect x="1585.8" y="1300.2" class="st4" width="216.2" height="216.2"/>
	<rect x="624.1" y="1540.7" class="st4" width="216.2" height="216.2"/>
	<rect x="864.5" y="1540.7" class="st4" width="216.2" height="216.2"/>
	<rect x="1105" y="1540.7" class="st4" width="216.2" height="216.2"/>
	<rect x="1345.4" y="1540.7" class="st4" width="216.2" height="216.2"/>
	<rect x="1585.8" y="1540.7" class="st4" width="216.2" height="216.2"/>
	<rect x="1105" y="1059.8" class="st5" width="216.2" height="216.2"/>
</g>
<g id="Layer_3">
	<path class="st6" d="M972.6,1380.7L952,1456h-12.6l-26.6-93.4h12.9l20.7,77.8l21.4-77.8h9.7l21.4,77.8l20.6-77.8h12.9l-26.6,93.4
		h-12.6L972.6,1380.7z"/>
	<path class="st6" d="M1175,1361.8h11.6v56.8c0,17.1,9.2,27.9,26.5,27.9c17.2,0,26.5-10.8,26.5-27.9v-56.8h11.6v57
		c0,23.2-12.7,38.1-38.1,38.1s-38.1-15-38.1-37.9V1361.8z"/>
	<path class="st6" d="M1426,1362.6h11.6v83h43.4v10.4h-55V1362.6z"/>
	<path class="st6" d="M1663.3,1362.6h61.2v10.4h-49.6v30.1h48.6v10.4h-48.6v42.6h-11.6V1362.6z"/>
</g>
<g id="Text">
	<g>
		<path d="M226.6,1268.1l1.9,13.1l-64.3,9.3c-19.3,2.8-30,15-27.2,34.5c2.8,19.5,16.5,28.2,35.8,25.4l64.3-9.3l1.9,13.1l-64.5,9.3
			c-26.3,3.8-45.2-8.2-49.3-36.8c-4.1-28.7,10.7-45.5,36.7-49.3L226.6,1268.1z"/>
		<path d="M268.1,1465.9l3.7,11.4L170.2,1510l-3.7-11.4L268.1,1465.9z"/>
		<path d="M233.7,1626.5l45.6-21.9l-5.5-11.5l9.5-4.6l5.5,11.5l19-9.1l5.2,10.8l-19,9.1l6.8,14.1l-9.5,4.6l-6.8-14.1l-43.3,20.8
			c-5.2,2.5-7.8,6.6-5.6,11.4c1.5,3,4.1,5.3,6.4,6l-6.6,7c-3.9-1.5-7.7-4.5-10.7-10.8C219.9,1639.5,223.4,1631.5,233.7,1626.5z"/>
		<path d="M357.1,1723l6.7,10l-10.4,6.9c10.3,0.6,20.2,4.8,26,13.6l-10.2,6.9c-0.5-1.4-1.2-2.7-2.3-4.3
			c-4.1-6.1-14.8-11.1-21.9-10.6l-45.5,30.5l-6.7-10L357.1,1723z"/>
		<path d="M429.5,1923.6c-9.5,0.1-18.2-3.8-25.3-11.4c-9-9.6-12-25.8,0.3-37.2c12.6-11.8,28.1-7.2,37,2.4
			c7.2,7.7,10.8,16.4,9.7,25.9l10.2-9.5c7.6-7.1,6.3-17.2-1.4-25.4c-6.3-6.8-13.9-10-24-10l2.3-9.8c12,0.2,21.8,4.6,30.4,13.8
			c11.1,11.9,15,26.9,1.3,39.7l-38.8,36.2l-8.2-8.8L429.5,1923.6z M445.6,1908.5c1.5-7.8-1.7-15.9-7.5-22.1
			c-7.6-8.2-18.1-9.1-25.4-2.4c-7.1,6.7-6.9,17.2,0.7,25.4c5.8,6.2,13.7,10,21.5,9L445.6,1908.5z"/>
		<path d="M595.4,1942.3l9.4,7.4l-66.1,83.8l-9.4-7.4L595.4,1942.3z"/>
		<path d="M662.2,2072.8c11-19.5,32.7-28.1,53.2-16.6s24.5,34.5,13.5,54s-32.7,28.2-53.2,16.7
			C655.1,2115.4,651.2,2092.3,662.2,2072.8z M717.9,2104c7.7-13.7,6.6-30.4-7.8-38.5c-14.4-8.1-29.4-0.3-37,13.3
			c-7.8,13.8-6.6,30.6,7.8,38.7C695.3,2125.7,710.1,2117.9,717.9,2104z M703.7,2028c2-3.5,6.5-4.8,10-2.8c3.6,2,4.8,6.5,2.8,10
			c-2,3.6-6.5,5-10.1,3C702.9,2036.2,701.6,2031.6,703.7,2028z M732.4,2044.1c2-3.5,6.5-4.8,10.2-2.7c3.5,2,4.8,6.5,2.8,10
			c-2,3.6-6.6,4.9-10.1,3C731.7,2052.3,730.4,2047.8,732.4,2044.1z"/>
		<path d="M818.8,2224.2l34.3-101.1l11.4,3.9l-3.7,10.9c7.8-5.6,18.7-7.8,29-4.3c19.2,6.5,27.6,25.6,19.6,49.4
			c-8,23.6-26.4,34-45.6,27.4c-10-3.4-17.2-11.1-20.3-21.3l-13.2,38.9L818.8,2224.2z M883.4,2142.7c-8.9-3-19.7-0.8-25.8,4.3
			l-11.2,33c1.8,7.7,8.9,16.2,17.8,19.2c14.7,5,27.6-4.2,33.1-20.4S898.1,2147.7,883.4,2142.7z"/>
		<path d="M1071.6,2247.4c-7.4,6-16.6,8.4-26.9,6.9c-13-1.9-25.5-12.6-23-29.3c2.5-17.1,17.5-23.1,30.4-21.2
			c10.4,1.5,18.7,6.1,23.8,14.2l2-13.8c1.5-10.3-5.9-17.4-16.9-19c-9.2-1.3-17.1,0.9-25,7.2l-4.3-9c9.5-7.3,19.9-10,32.4-8.2
			c16.1,2.4,28.5,11.6,25.8,30.2l-7.7,52.6l-11.9-1.7L1071.6,2247.4z M1074.8,2225.5c-3.7-7-11.3-11.4-19.7-12.6
			c-11.1-1.6-19.9,4.2-21.3,14c-1.4,9.7,5.3,17.8,16.4,19.4c8.4,1.2,16.9-0.7,22.4-6.4L1074.8,2225.5z"/>
		<path d="M1212.8,2188l12-0.2l0.2,12.5c6.1-8.3,15-14.3,25.5-14.5l0.2,12.3c-1.4-0.3-2.9-0.4-4.8-0.4c-7.4,0.1-17.3,6.4-20.8,12.7
			l0.9,54.7l-12,0.2L1212.8,2188z"/>
		<path d="M1366,2187.2l-12.6,2l-1.6-10.4l12.6-2l-0.9-5.8c-2.5-15.8,5-26.2,18.3-28.3c4.4-0.7,8.7-0.5,12,0.9l-1.6,9.3
			c-2.1-0.8-4.4-1.1-7.1-0.7c-7.7,1.2-11.2,7.2-9.7,16.9l0.9,5.8l15.5-2.4l1.6,10.4l-15.5,2.4l10.3,65.9l-11.9,1.8L1366,2187.2z"/>
		<path d="M1501.8,2125c-1.2-3.8,0.9-8,4.7-9.3c4-1.3,8,0.9,9.3,4.7c1.3,4-0.7,8.1-4.7,9.4C1507.3,2131.1,1503.1,2129,1501.8,2125z
			 M1506.7,2185.9c-7-21.3,1.4-43.1,23.7-50.4c22.3-7.3,42,5.3,48.9,26.6c7,21.3-1.3,43.2-23.7,50.5
			C1533.4,2219.9,1513.7,2207.2,1506.7,2185.9z M1567.4,2166c-4.9-14.9-17.9-25.4-33.6-20.3s-20.1,21.4-15.2,36.3
			c4.9,15.1,18.1,25.5,33.8,20.4S1572.3,2181.1,1567.4,2166z M1533.1,2114.8c-1.2-3.8,0.9-8,4.9-9.3c3.8-1.2,8,0.9,9.3,4.7
			c1.3,4-0.9,8.2-4.7,9.4C1538.6,2120.9,1534.4,2118.7,1533.1,2114.8z"/>
		<path d="M1672.8,2078.7l10.6-5.6l5.8,11.1c1.7-10.1,6.9-19.5,16.3-24.4l5.7,10.9c-1.4,0.4-2.8,0.9-4.5,1.8
			c-6.5,3.4-12.6,13.5-12.9,20.6l25.4,48.5l-10.6,5.6L1672.8,2078.7z"/>
		<path d="M1826,1980.8c18.6-14.1,40.6-7.8,54.6,10.7l1.8,2.4l-49.9,37.7c9.5,11,25,14.6,38.3,4.6c7-5.3,12.1-13.5,13.2-22.1
			l9.3,2.8c-1.5,10.8-7.3,20.3-17.4,28c-18.3,13.8-41.3,10.5-55.9-8.7C1806.5,2018.2,1808.4,1994.1,1826,1980.8z M1827.2,2024.6
			l40.5-30.5c-7.1-9.1-21.8-15.8-35.8-5.2C1818.7,1998.8,1820.6,2014.8,1827.2,2024.6z"/>
		<path d="M1996.7,1862.1c-10-9.2-17.8-7.1-24.9,0.6c-6.4,6.9-8.2,17.4-6.7,25l41.5,38.3l-8.1,8.8l-56.8-52.4l8.1-8.8l8.2,7.6
			c-1-8.3,1.2-20.7,9-29.1c10.9-11.9,22.7-12.6,35.1-1.2l39.9,36.8l-8.1,8.8L1996.7,1862.1z"/>
		<path d="M2039,1729.8c-3.7-2.5-4.6-7.5-2.2-11.1c2.5-3.7,7.5-4.8,11.2-2.3c3.7,2.5,4.7,7.6,2.2,11.3
			C2047.9,1731.3,2042.8,1732.3,2039,1729.8z M2057.8,1739.8l6.7-10l64.2,43l-6.7,10L2057.8,1739.8z"/>
		<path d="M2171.2,1590.3c-12.3-5.7-19.2-1.3-23.5,8.1c-4,8.6-2.5,19.1,1.2,25.8l51.2,23.8l-5.1,10.9l-70.1-32.6l5.1-10.9l10.2,4.7
			c-3.5-7.6-5.2-20-0.3-30.5c6.8-14.7,17.8-18.9,33-11.8l49.2,22.9l-5.1,10.9L2171.2,1590.3z"/>
		<path d="M2279.3,1471.9c9-4.3,13.7-11,16.5-21.7c3.2-12.4,0.1-25.6-16.3-29.8l-10.7-2.8c6.2,7.4,9.6,18,6.9,28.5
			c-5,19.5-23.1,29.6-47.3,23.4c-24-6.2-35.4-23.6-30.3-43.3c2.6-10.1,9.9-17.8,19.6-21.7l-11.3-2.9l3-11.6l72.7,18.7
			c24.8,6.4,28.1,25.7,23.4,44c-3.3,12.7-8,20.7-18.9,27.3L2279.3,1471.9z M2227,1406.9c-7.5,2.4-15.4,9.9-17.8,19.2
			c-3.9,15,5.8,27.1,22.3,31.4c16.4,4.2,30.8-1.7,34.7-16.7c2.4-9.3-1-19.8-6.5-25.5L2227,1406.9z"/>
	</g>
	<g>
		<path d="M771.9,307.3l31.6,162.1l-23.9,11.8l-138-152.1L666,317l112.3,128.2l-32.4-167.7l18.3-9.1L877.8,396l-34-166.9l24.4-12.1
			l37.1,202l-23.9,11.8L771.9,307.3z"/>
		<path d="M1000.2,203.9c-1.6-8.1,3.8-15.8,11.7-17.4c8.1-1.6,16.1,3.5,17.7,11.6c1.6,8.1-3.8,16.1-11.9,17.7
			C1009.8,217.4,1001.8,212,1000.2,203.9z M1011.5,241.5l21.8-4.3l27.6,140.3l-21.8,4.3L1011.5,241.5z"/>
		<path d="M1167.5,329.7c9.7,10.8,27.9,20,47.4,19.7c21.9-0.4,33.6-10.3,33.4-24.2c-0.3-15.7-17.8-20.4-37.1-24.9
			c-24.4-5.2-52-11.3-52.5-40.9c-0.4-22.2,18.6-41.5,52.6-42c24.3-0.4,41.6,8.5,53.3,19.9l-10.1,15.6c-8.8-10.2-24.6-17.7-42.9-17.4
			c-19.5,0.3-31.5,9.4-31.3,22.1c0.2,13.9,16.6,18.1,35.3,22.2c25,5.2,53.8,11.9,54.3,43.5c0.4,24-18.5,43.5-55.6,44.1
			c-23.4,0.4-43.3-6.4-58.1-21.6L1167.5,329.7z"/>
		<path d="M1408.1,182.8l21.5,5.5l-18.8,73.7c15.1-12.4,34-17.3,53-12.5c36.2,9.2,54.4,44.4,43.1,88.6c-11.5,45.1-44,66.1-80.2,56.9
			c-19.5-5-33.9-19.3-40.6-36l-5.3,20.7l-21.5-5.5L1408.1,182.8z M1426.3,374.4c28.1,7.2,50.5-11.3,58.4-42
			c7.8-30.7-3-57.9-31.1-65.1c-16.9-4.3-36.5,1.7-47,11.9l-16,62.8C1394.9,356,1409.3,370.1,1426.3,374.4z"/>
		<path d="M1562.7,481.1c8.5,4.7,15.8,5.1,26-2.9l18.8-14.3l17.8-155.4l21,11.6l-15.2,125.7l98.3-79.5l21.2,11.8l-146.1,115.6
			c-17.6,14-34.1,13.9-50.8,5c-4.1-2.3-10.2-6.7-13.2-9.7l12.9-15.9C1555.4,476,1559.6,479.4,1562.7,481.1z"/>
	</g>
</g>
</svg>
