<?xml version="1.0" encoding="utf-8"?>
<!-- Generator: Adobe Adobe Illustrator 24.2.0, SVG Export Plug-In . SVG Version: 6.00 Build 0)  -->
<svg version="1.1" xmlns="http://www.w3.org/2000/svg" xmlns:xlink="http://www.w3.org/1999/xlink" x="0px" y="0px"
	 width="2426.1px" height="2401.9px" viewBox="0 0 2426.1 2401.9" style="enable-background:new 0 0 2426.1 2401.9;"
	 xml:space="preserve">
<style type="text/css">
	.st0{fill-rule:evenodd;clip-rule:evenodd;fill:#CCCCCC;}
	.st1{fill-rule:evenodd;clip-rule:evenodd;fill:#666666;}
	.st2{fill-rule:evenodd;clip-rule:evenodd;fill:#999999;}
	.st3{fill-rule:evenodd;clip-rule:evenodd;fill:#333333;}
	.st4{fill-rule:evenodd;clip-rule:evenodd;fill:#1A1A1A;}
	.st5{fill-rule:evenodd;clip-rule:evenodd;fill:#FF0000;}
	.st6{fill:none;}
	.st7{fill-rule:evenodd;clip-rule:evenodd;fill:none;}
</style>
<g id="Grid">
</g>
<g id="Text">
</g>
<g id="Layer_3">
	<rect x="849.1" y="834.4" class="st0" width="144" height="144"/>
	<rect x="1137.1" y="834.4" class="st1" width="144" height="144"/>
	<rect x="849.1" y="978.4" class="st2" width="144" height="144"/>
	<rect x="993.1" y="978.4" class="st2" width="144" height="144"/>
	<rect x="1137.1" y="978.4" class="st1" width="144" height="144"/>
	<rect x="1281.1" y="978.4" class="st3" width="144" height="144"/>
	<rect x="849.1" y="1122.4" class="st1" width="144" height="144"/>
	<rect x="993.1" y="1122.4" class="st1" width="144" height="144"/>
	<rect x="1281.1" y="1122.4" class="st3" width="144" height="144"/>
	<rect x="849.1" y="1266.4" class="st3" width="144" height="144"/>
	<rect x="993.1" y="1266.4" class="st3" width="144" height="144"/>
	<rect x="1137.1" y="1266.4" class="st3" width="144" height="144"/>
	<rect x="1281.1" y="1266.4" class="st3" width="144" height="144"/>
	<rect x="1425.1" y="834.4" class="st4" width="144" height="144"/>
	<rect x="1425.1" y="978.4" class="st4" width="144" height="144"/>
	<rect x="1425.1" y="1122.4" class="st4" width="144" height="144"/>
	<rect x="1425.1" y="1266.4" class="st4" width="144" height="144"/>
	<rect x="1137.1" y="1122.4" class="st5" width="144" height="144"/>
	<g>
		<path class="st6" d="M363.1,1198.4c0-469.4,380.6-850,850-850s850,380.6,850,850"/>
		<path d="M782.7,552.3l44.1,132.3l-18.7,12.5L676,584.7l19.1-12.8L803.1,667l-45.3-136.9l14.3-9.6l109,94.4l-46.6-136l19.1-12.8
			l53,165.1l-18.7,12.5L782.7,552.3z"/>
		<path d="M979.3,424.2l19.9-5.7l46.1,160.3l-19.9,5.7L979.3,424.2z"/>
		<path d="M1144.1,519c11.3,12,29.6,23,53.1,22.4c29.7-0.7,38.8-17,38.5-29.7c-0.5-20-20.9-25-43-30.4
			c-26.9-6.3-56.8-13.1-57.7-45.8c-0.7-27.5,23.3-46.9,56.1-47.7c25.5-0.6,45.4,7.4,59.8,21.8l-12.1,15.6
			c-12.8-13.4-30.5-19.2-48.7-18.8c-20,0.5-34,11.6-33.6,27.4c0.4,16.7,19.8,21.3,41.2,26.5c27.4,6.6,58.6,14.3,59.5,49.3
			c0.6,24.2-15.3,49.4-60.3,50.5c-29,0.7-50.5-9.7-64.6-24.9L1144.1,519z"/>
		<path d="M1393.1,407.8l71,21.7c27.7,8.5,39.6,30.4,32.3,54.3c-6.1,20.1-23.6,29.4-39.1,28c16.2,7.8,24.9,29.6,19.1,48.7
			c-7.8,25.6-30.1,37.9-59.3,28.9l-72.7-22.2L1393.1,407.8z M1418.4,570.6c18.6,5.7,32.9-1.5,38-18.4c4.5-14.6-1.6-30.6-21.2-36.6
			l-48.8-14.9l-16.8,55L1418.4,570.6z M1439.6,497.6c17.9,5.5,30.9-2.6,35.3-17.2c4.4-14.3-1.7-28.7-19.6-34.2l-47.8-14.6
			l-15.7,51.4L1439.6,497.6z"/>
		<path d="M1616.7,611.4l2.2-116.5l19.8,14l-2.7,93.1l87.1-33.2l19.8,14l-109.1,40.5l-40.8,57.5l-16.9-12L1616.7,611.4z"/>
	</g>
	<g>
		<path class="st6" d="M2063.1,1203.4c0,469.4-380.6,850-850,850s-850-380.6-850-850"/>
		<path d="M485.1,1277.9l1.4,9.9l-48.2,7c-14.5,2.1-22.5,11.3-20.4,25.9c2.1,14.6,12.4,21.1,26.9,19l48.2-7l1.4,9.9l-48.3,7.1
			c-19.7,2.9-33.9-6.1-37-27.6s8-34.2,27.5-37L485.1,1277.9z"/>
		<path d="M511.6,1410.9l3.1,9.5l-67.6,22.1l11.6,35.4l-8.4,2.8l-14.7-44.8L511.6,1410.9z"/>
		<path d="M548.1,1528.3l-11.3-22.7l7.9-4l27.1,54.3l-7.9,4l-11.3-22.8l-63.7,31.7l-4.4-8.9L548.1,1528.3z"/>
		<path d="M582.2,1660.9l-9.4-12.9l-25.7,18.7l-5.9-8l64.7-47.1l18.9,26c8.6,11.8,7.2,25.8-4.7,34.5c-11.6,8.5-23.8,5.2-31-3.1
			l-13.7,36.7l-6.9-9.5L582.2,1660.9z M616.9,1641.8l-12.4-17l-24.7,18l12.4,17c5.6,7.7,14.5,9.2,21.8,3.9
			S622.5,1649.4,616.9,1641.8z"/>
		<path d="M676.9,1788.4l-29.2-28.2l-17.4,7.9l-7.9-7.7l78.7-35.3l8.9,8.6l-32.4,80l-7.9-7.7L676.9,1788.4z M655.9,1755.8l25,24.1
			l18.5-44L655.9,1755.8z"/>
		<path d="M782.4,1794.6l8.2,5.6l-40.3,58.7l30.7,21.1l-5,7.3l-38.9-26.7L782.4,1794.6z"/>
		<path d="M908.3,1866.6c21.5,9.9,28.7,32.7,18.8,54.2c-9.9,21.5-31.9,30.9-53.4,21c-21.6-9.9-28.7-32.7-18.8-54.2
			S886.7,1856.7,908.3,1866.6z M904.6,1874.7c-16.4-7.5-32.5,0.2-40.3,17.2c-7.8,16.9-3.2,34.3,13.1,41.8
			c16.2,7.5,32.5-0.3,40.3-17.2C925.5,1899.5,920.8,1882.2,904.6,1874.7z M897,1848c1.3-2.7,4.6-4,7.3-2.7c2.8,1.3,4,4.6,2.7,7.3
			c-1.3,2.8-4.5,4.1-7.4,2.8C897,1854.1,895.7,1850.8,897,1848z M919.5,1858.3c1.3-2.7,4.6-4,7.4-2.7c2.7,1.3,4,4.6,2.7,7.3
			c-1.3,2.8-4.6,4.1-7.4,2.8C919.4,1864.5,918.2,1861.1,919.5,1858.3z"/>
		<path d="M1007.2,1905.5l31.2,7.9c15.6,4,21.6,16.9,18.4,29.6c-3.2,12.7-14.9,21.1-30.3,17.2l-21.5-5.5l-7.8,30.8l-9.7-2.5
			L1007.2,1905.5z M1035.1,1921.8l-20.4-5.2l-7.5,29.5l20.4,5.2c9.2,2.3,17-2.1,19.2-10.8S1044.2,1924.1,1035.1,1921.8z"/>
		<path d="M1162.9,1995.4l-40.4-3.5l-8.6,17.1l-11-1l39-76.9l12.3,1.1l25.2,82.6l-11-1L1162.9,1995.4z M1126.1,1983.3l34.5,3
			l-13.3-45.9L1126.1,1983.3z"/>
		<path d="M1278.5,1979.9l-15.9,1.3l2.7,31.7l-9.9,0.8l-6.7-79.8l32-2.7c14.6-1.2,25.8,7.2,27,21.9c1.2,14.3-7.9,23.1-18.7,24.9
			l24.3,30.7l-11.7,1L1278.5,1979.9z M1280.2,1940.3l-20.9,1.8l2.6,30.5l20.9-1.8c9.4-0.8,15.4-7.7,14.6-16.6
			C1296.6,1945.2,1289.6,1939.5,1280.2,1940.3z"/>
		<path d="M1372.3,1917.4l50.8-13l2.2,8.6l-41.1,10.5l6.4,25l40.3-10.3l2.2,8.6l-40.3,10.3l9.1,35.3l-9.6,2.5L1372.3,1917.4z"/>
		<path d="M1517.1,1866.9c21.5-9.9,43.5-0.4,53.4,21c9.9,21.5,2.7,44.3-18.8,54.2c-21.6,9.9-43.5,0.4-53.4-21
			C1488.4,1899.7,1495.5,1876.9,1517.1,1866.9z M1495.7,1863.3c-1.3-2.7,0-6.1,2.7-7.3c2.8-1.3,6.1,0,7.3,2.7
			c1.3,2.8,0.2,6.1-2.7,7.4C1500.3,1867.4,1497,1866.2,1495.7,1863.3z M1520.8,1875c-16.4,7.5-21,24.8-13.1,41.8
			c7.8,16.9,23.9,24.8,40.3,17.3c16.2-7.5,20.9-24.9,13.1-41.8C1553.3,1875.3,1537.1,1867.5,1520.8,1875z M1518.1,1853
			c-1.3-2.7,0-6.1,2.8-7.4c2.7-1.3,6.1,0,7.3,2.7c1.3,2.8,0.1,6.2-2.7,7.4C1522.8,1857.1,1519.4,1855.8,1518.1,1853z"/>
		<path d="M1660.1,1841.8l-13,9.2l18.3,26l-8.1,5.7l-46.1-65.4l26.3-18.5c12-8.4,25.9-6.8,34.4,5.3c8.3,11.8,4.8,23.9-3.6,31
			l36.4,14.3l-9.6,6.8L1660.1,1841.8z M1641.5,1806.7l-17.2,12.1l17.6,25l17.2-12.1c7.8-5.5,9.4-14.4,4.2-21.7
			S1649.3,1801.2,1641.5,1806.7z"/>
		<path d="M1709.5,1740.5l37.3-36.9l6.2,6.3l-30.2,29.9l18.1,18.3l29.6-29.3l6.2,6.3l-29.6,29.3l19.4,19.6l30.2-29.9l6.2,6.3
			l-37.3,36.9L1709.5,1740.5z"/>
		<path d="M1809.2,1653.3l52.7,37.3l-5.8,8.1l-65.3-46.3l5.9-8.3l78.2-1l-51.6-36.6l5.8-8.1l65.3,46.3l-5.5,7.8L1809.2,1653.3z"/>
		<path d="M1864.1,1536.1l4.5-8.9l71.5,36l-4.5,8.9L1864.1,1536.1z"/>
		<path d="M1915.6,1457.4l61.4,20l-3.1,9.5l-76.1-24.8l3.2-9.7l74.4-24.2l-60.1-19.6l3.1-9.5l76.1,24.8l-3,9.1L1915.6,1457.4z"/>
		<path d="M1937.2,1293.3c1.8-14,9.3-23,18.8-28.9l3.9,8.5c-7.1,4.2-12.7,12-13.9,21.6c-2.2,17.4,9.4,32.3,28.3,34.7
			c18.8,2.4,34.1-9,36.3-26.4c1.2-9.5-2.4-18-5.8-22.4l-16.2-2.1l-3.5,27.3l-8.8-1.1l4.8-37.1l28.7,3.7c7.3,8.4,11.3,20,9.7,32.9
			c-2.9,22.6-21.8,38.7-46.4,35.5C1948.4,1336.2,1934.3,1315.9,1937.2,1293.3z"/>
	</g>
	<g>
		<rect x="858" y="1420.6" class="st7" width="702" height="133.8"/>
		<path d="M899.6,1434.9l7.9,52.8h0.2l8.4-52.8h13.8l8.4,52.8h0.2l7.9-52.8h13.8l-13,71.4h-16.1l-8-51.8h-0.2l-8,51.8h-16.1
			l-13-71.4H899.6z"/>
		<path d="M1121.4,1484.7c0,1.8,0.1,3.4,0.4,4.9c0.2,1.5,0.7,2.8,1.3,3.9c0.6,1.1,1.5,2,2.6,2.6c1.1,0.6,2.5,1,4.2,1
			c1.7,0,3.1-0.3,4.2-1c1.1-0.6,1.9-1.5,2.5-2.6c0.6-1.1,1.1-2.4,1.3-3.9c0.2-1.5,0.3-3.1,0.3-4.9v-49.8h14.4v49.8
			c0,4.5-0.6,8.3-1.9,11.2c-1.3,3-3,5.3-5.1,7c-2.1,1.7-4.6,2.9-7.3,3.5c-2.7,0.6-5.6,0.9-8.5,0.9c-2.9,0-5.8-0.3-8.5-0.8
			c-2.7-0.5-5.2-1.6-7.3-3.2c-2.1-1.6-3.8-4-5.1-7c-1.3-3-1.9-6.9-1.9-11.7v-49.8h14.4V1484.7z"/>
		<path d="M1303.6,1434.9h14.4v59.6h25.5v11.8h-39.9V1434.9z"/>
		<path d="M1531.7,1434.9v11.8h-25.5v16.8h24v11.8h-24v31h-14.4v-71.4H1531.7z"/>
	</g>
</g>
</svg>
